<?xml version="1.0" encoding="UTF-8" ?>
<!DOCTYPE svg PUBLIC "-//W3C//DTD SVG 1.1//EN" "http://www.w3.org/Graphics/SVG/1.1/DTD/svg11.dtd">
<svg width="1000pt" height="1000pt" viewBox="0 0 1000 1000" version="1.1" xmlns="http://www.w3.org/2000/svg">
<g id="#000000ff">
<path fill="#FE251B" opacity="1.00" d=" M 664.20 112.72 C 710.24 102.36 759.75 108.13 802.09 128.99 C 824.37 139.46 844.65 154.49 860.42 173.46 C 864.92 180.33 870.30 186.62 874.13 193.93 C 892.20 224.82 898.35 261.56 895.98 296.96 C 895.05 313.74 891.65 330.24 887.96 346.59 C 879.96 380.25 867.36 412.73 851.42 443.41 C 813.72 517.23 761.71 582.85 704.07 642.06 C 695.92 651.89 685.74 659.72 676.66 668.63 C 662.83 682.89 647.70 695.80 632.40 708.43 C 568.43 762.29 498.50 809.18 423.79 846.81 C 390.26 862.71 356.61 878.61 321.46 890.67 C 318.20 891.70 314.79 892.26 311.37 892.41 C 315.97 884.79 325.31 883.22 332.81 879.82 C 361.37 865.66 390.14 851.82 417.73 835.82 C 449.97 817.37 481.27 797.28 511.51 775.71 C 541.77 754.24 570.63 730.90 598.92 706.93 C 612.32 695.37 625.13 683.13 637.54 670.52 C 646.07 663.45 653.90 655.59 661.46 647.50 C 674.35 633.39 687.86 619.86 700.22 605.27 C 708.44 595.80 716.49 586.17 724.31 576.36 C 727.32 572.71 729.96 568.73 733.44 565.48 C 735.36 563.82 735.70 561.18 736.59 558.94 C 741.07 557.92 741.71 552.64 744.89 549.90 C 766.17 520.92 786.11 490.88 803.66 459.47 C 822.57 425.14 838.69 388.99 848.37 350.91 C 851.24 339.13 853.39 327.18 855.14 315.19 C 856.40 305.18 858.05 295.09 856.88 284.98 C 856.56 270.12 854.15 255.34 850.00 241.07 C 844.92 224.01 835.67 208.36 824.00 194.99 C 813.57 183.03 799.97 174.40 786.07 167.02 C 767.92 157.87 748.22 151.72 728.07 149.04 C 717.36 147.87 706.47 146.03 695.75 148.09 C 663.96 150.66 633.57 162.82 606.80 179.81 C 574.50 200.64 546.87 227.98 522.73 257.73 C 503.34 281.79 485.37 307.04 469.48 333.56 C 465.27 340.41 461.67 347.62 457.26 354.34 C 453.12 360.30 447.50 366.08 440.10 367.48 C 435.53 367.80 430.39 368.38 426.45 365.52 C 421.26 362.08 418.50 356.21 416.45 350.54 C 398.26 301.37 361.98 259.68 317.19 232.80 C 298.24 221.39 277.08 213.21 255.03 210.69 C 242.05 209.73 228.70 209.97 216.24 214.13 C 198.41 219.50 182.68 230.81 171.16 245.35 C 151.20 269.27 140.60 299.59 135.69 330.02 C 132.09 346.78 133.71 364.01 133.62 381.00 C 136.86 429.79 153.79 477.13 179.43 518.57 C 188.01 532.36 197.37 545.70 208.01 557.99 C 214.27 565.37 220.51 572.79 226.98 579.98 C 240.12 592.54 253.57 604.79 267.50 616.46 C 273.68 621.77 280.56 626.16 287.18 630.87 C 304.72 642.98 322.62 654.65 341.54 664.52 C 356.10 672.35 371.50 678.57 385.62 687.22 C 375.76 688.59 366.83 683.58 357.84 680.44 C 319.72 666.00 283.96 645.81 250.77 622.22 C 237.46 612.68 225.04 601.96 213.01 590.85 C 199.36 579.57 187.45 566.31 176.86 552.14 C 174.22 548.18 170.30 545.27 167.97 541.08 C 156.58 526.66 146.93 510.93 138.33 494.72 C 118.43 456.84 105.76 414.88 103.61 372.05 C 103.36 357.01 102.87 341.89 105.02 326.95 C 107.70 308.28 112.50 289.92 119.06 272.24 C 128.37 249.39 141.53 227.74 159.60 210.75 C 168.84 202.82 178.24 194.88 189.02 189.11 C 208.12 179.47 229.67 174.75 251.05 175.22 C 261.02 176.49 271.15 176.70 280.97 178.98 C 316.52 186.08 348.66 204.78 376.61 227.34 C 386.87 235.39 395.08 245.60 404.36 254.68 C 414.27 264.30 422.23 275.67 429.86 287.12 C 432.83 292.01 436.49 296.73 441.87 299.11 C 444.82 296.30 447.97 293.63 450.24 290.21 C 460.09 275.56 469.70 260.66 481.22 247.23 C 483.36 243.78 485.21 240.13 488.49 237.58 C 503.81 217.43 521.74 199.47 539.85 181.85 C 547.86 173.69 557.48 167.41 566.39 160.31 C 595.21 137.90 628.57 121.03 664.20 112.72 Z" />
<path fill="#D4AF37" opacity="1.00" d=" M 462.47 371.71 C 483.56 369.23 504.77 374.07 524.39 381.57 C 553.16 392.90 579.84 409.10 604.39 427.81 C 629.80 446.28 653.14 468.46 669.57 495.44 C 678.59 510.47 685.20 527.34 686.14 544.98 C 687.24 565.71 680.70 587.15 666.76 602.74 C 655.96 614.99 640.83 622.91 624.99 626.38 C 606.02 630.55 586.18 628.73 567.58 623.63 C 536.78 615.02 507.67 600.75 481.29 582.74 C 479.07 581.47 476.85 578.79 474.07 579.77 C 471.00 581.34 468.46 583.74 465.60 585.65 C 425.53 614.11 376.34 630.45 327.02 628.88 C 295.85 627.22 265.71 607.94 252.80 579.24 C 244.65 561.23 244.78 539.86 252.86 521.84 C 258.42 508.71 268.56 498.41 278.13 488.15 C 311.60 454.57 354.59 430.52 400.77 419.73 C 402.22 419.39 403.26 418.24 403.97 416.99 C 409.75 406.55 416.55 396.49 425.36 388.35 C 435.55 379.03 448.83 373.42 462.47 371.71 M 429.21 393.20 C 420.80 401.10 414.30 410.85 408.85 420.97 C 402.04 434.23 397.13 449.30 399.02 464.35 C 400.42 461.18 400.73 457.71 401.59 454.39 C 403.22 447.97 406.18 441.70 411.10 437.14 C 418.50 430.09 428.93 427.10 438.97 426.91 C 453.54 426.28 467.93 429.71 481.66 434.30 C 500.88 440.92 519.19 449.98 536.73 460.21 C 562.81 475.61 587.49 493.64 608.96 515.06 C 619.29 525.62 629.27 537.04 635.29 550.69 C 639.52 561.69 642.78 573.21 643.25 585.05 C 643.34 593.81 641.32 602.92 635.97 610.03 C 633.46 613.49 629.86 615.90 626.95 618.98 C 633.98 618.38 640.34 614.87 646.40 611.52 C 673.20 596.05 685.52 561.66 678.29 532.15 C 674.01 513.46 664.16 496.54 652.46 481.54 C 641.48 467.62 628.78 455.08 615.07 443.84 C 590.15 423.93 563.60 405.69 534.44 392.53 C 517.21 384.85 499.01 378.58 480.07 377.26 C 461.95 375.65 442.78 380.70 429.21 393.20 M 390.74 428.63 C 344.66 441.94 302.28 468.54 271.08 505.06 C 266.23 510.71 261.71 516.80 258.87 523.74 C 256.19 530.45 257.97 537.92 260.67 544.32 C 265.33 555.40 275.36 563.79 286.74 567.36 C 287.83 567.71 288.98 567.43 290.10 567.41 C 290.96 561.21 293.46 555.29 297.64 550.60 C 305.64 541.22 315.41 533.58 325.45 526.51 C 346.91 511.55 369.93 499.05 393.01 486.81 C 396.16 485.40 394.57 481.65 394.24 479.08 C 390.96 464.07 392.15 448.27 396.93 433.72 C 397.61 431.76 398.00 429.71 398.34 427.68 C 395.75 427.28 393.20 427.86 390.74 428.63 M 440.71 436.99 C 442.41 445.22 446.96 452.53 451.66 459.37 C 454.11 462.93 458.84 460.88 462.23 460.20 C 471.63 457.29 481.22 451.86 485.89 442.85 C 483.70 441.56 481.38 440.52 478.95 439.81 C 467.29 436.09 455.24 432.71 442.90 432.80 C 440.76 432.84 440.23 435.30 440.71 436.99 M 413.53 443.53 C 407.75 450.60 405.99 460.07 405.86 468.97 C 406.20 482.67 410.40 496.12 416.97 508.09 C 415.39 501.62 412.69 495.38 412.23 488.68 C 413.59 489.26 414.83 490.12 415.60 491.43 C 420.47 498.92 427.86 504.54 435.98 508.12 C 439.72 509.67 444.59 511.05 447.96 507.98 C 455.03 502.24 462.08 496.24 467.67 489.03 C 463.70 483.54 458.63 478.96 454.55 473.54 C 446.02 462.80 437.52 451.25 434.55 437.59 C 434.07 436.10 433.93 434.01 431.96 433.86 C 424.95 434.68 418.15 438.16 413.53 443.53 M 492.74 456.11 C 490.29 471.37 480.87 484.45 470.65 495.59 C 450.41 516.84 425.33 532.72 399.74 546.73 C 381.15 556.80 361.88 565.95 341.44 571.59 C 325.39 576.07 308.33 578.23 291.82 575.11 C 278.12 572.40 264.90 564.55 257.87 552.20 C 256.46 549.93 255.68 547.10 253.29 545.63 C 251.88 554.69 253.64 564.00 256.68 572.56 C 267.66 601.55 297.35 621.38 327.99 622.90 C 346.81 623.63 365.65 620.99 383.92 616.56 C 418.02 608.07 450.04 591.58 477.02 569.09 C 488.35 559.49 499.68 549.65 508.49 537.59 C 517.86 524.89 525.61 510.08 526.21 494.01 C 526.73 485.20 523.95 476.59 520.30 468.69 C 517.31 462.74 513.76 456.83 508.60 452.53 C 504.37 449.66 499.51 447.88 494.77 446.07 C 492.33 448.82 493.57 452.80 492.74 456.11 M 524.78 460.87 C 524.28 465.04 527.52 468.43 528.54 472.33 C 534.02 485.92 533.28 501.40 528.08 514.96 C 527.31 517.50 525.19 520.91 528.01 522.94 C 538.37 530.85 550.23 536.51 561.94 542.12 C 578.74 549.81 595.92 556.92 613.87 561.45 C 619.16 562.64 624.63 564.15 630.08 563.19 C 631.80 562.67 631.82 560.47 631.45 559.07 C 627.04 543.62 616.02 531.36 605.19 519.99 C 591.50 506.11 576.21 493.91 560.32 482.67 C 548.84 474.85 537.28 466.95 524.78 460.87 M 461.30 470.83 C 463.01 475.07 466.59 478.10 469.58 481.43 C 470.56 482.74 472.78 483.71 473.88 481.98 C 476.04 478.94 479.34 475.90 479.32 471.96 C 474.02 468.95 467.05 469.00 461.30 470.83 M 369.60 506.48 C 352.59 516.15 335.70 526.18 320.16 538.13 C 312.17 544.39 304.08 551.02 298.74 559.80 C 297.20 562.48 295.72 566.32 297.95 569.04 C 300.84 571.07 304.63 570.55 307.98 570.72 C 327.67 570.26 346.82 564.43 364.88 556.90 C 381.75 549.74 397.92 541.03 413.69 531.72 C 415.31 530.64 417.32 529.82 418.22 527.98 C 418.13 526.39 416.94 525.19 416.08 523.97 C 409.89 516.48 404.69 508.17 400.74 499.30 C 399.73 496.81 398.66 494.33 397.10 492.14 C 387.56 496.17 378.71 501.60 369.60 506.48 M 426.08 522.76 C 430.75 521.43 434.30 517.92 437.92 514.88 C 433.50 516.67 429.20 519.08 426.08 522.76 M 513.46 542.70 C 515.53 540.70 517.24 537.92 520.31 537.40 C 518.22 547.18 514.20 556.74 514.90 566.95 C 514.87 577.15 522.01 585.50 529.40 591.70 C 542.96 602.45 559.72 608.24 576.48 611.73 C 580.48 612.63 584.79 612.72 588.46 614.78 C 584.53 615.15 580.59 614.81 576.72 614.13 C 545.31 608.57 516.21 594.34 488.99 578.18 C 487.55 577.08 484.88 576.27 485.31 573.99 C 486.33 572.50 487.77 571.39 489.11 570.21 C 494.45 565.66 498.86 560.16 503.26 554.73 C 497.96 558.90 492.95 563.41 487.95 567.94 C 485.58 570.14 482.65 571.87 481.10 574.81 C 503.53 591.18 528.51 604.03 554.69 613.24 C 562.18 615.66 569.64 618.53 577.55 619.16 C 590.28 620.63 603.51 620.64 615.80 616.62 C 624.06 613.91 631.56 607.99 634.73 599.73 C 638.46 590.04 637.65 579.09 634.55 569.36 C 630.71 569.32 626.87 569.84 623.06 569.30 C 609.00 567.48 595.59 562.57 582.41 557.55 C 566.13 551.13 550.16 543.82 534.99 535.07 C 530.86 532.82 527.25 529.74 523.00 527.72 C 519.08 532.21 516.86 537.84 513.46 542.70 Z" />
<path fill="#D4AF37" opacity="1.00" d=" M 447.39 390.53 C 463.00 385.26 479.91 383.60 496.18 386.40 C 516.44 389.83 535.59 398.21 552.95 409.05 C 563.97 415.93 574.53 423.52 584.98 431.24 C 598.17 441.12 611.25 451.33 622.35 463.58 C 634.04 476.54 644.88 490.44 653.08 505.89 C 660.88 521.25 666.30 537.82 669.08 554.82 C 669.60 557.92 669.83 561.07 669.80 564.22 C 667.35 563.84 667.77 560.83 667.06 559.06 C 659.34 525.23 640.33 494.44 614.58 471.34 C 602.10 459.89 587.61 451.01 573.92 441.13 C 557.51 429.82 541.42 417.39 522.53 410.43 C 511.81 406.08 501.51 400.40 490.12 397.93 C 475.23 394.93 459.99 396.61 444.97 397.33 C 443.01 397.52 441.10 397.09 439.37 396.17 C 440.57 392.69 444.30 391.68 447.39 390.53 Z" />
<path fill="#D4AF37" opacity="1.00" d=" M 387.97 436.91 C 388.88 435.50 390.45 436.04 390.48 437.73 C 388.81 446.73 386.82 455.80 387.22 465.02 C 387.34 470.83 389.08 476.43 391.06 481.83 C 385.30 484.91 379.52 487.97 373.68 490.90 C 371.44 479.98 371.48 468.23 375.93 457.85 C 378.97 450.37 383.06 443.31 387.97 436.91 Z" />
<path fill="#D4AF37" opacity="1.00" d=" M 510.05 479.04 C 510.36 477.44 511.15 475.99 511.90 474.57 C 514.45 478.58 514.05 483.48 514.11 488.02 C 513.63 503.14 507.79 517.51 500.56 530.60 C 494.07 542.25 485.55 552.81 475.15 561.20 C 448.22 583.55 417.35 602.25 383.10 610.62 C 352.64 618.15 319.41 616.60 290.76 603.25 C 288.68 602.05 285.65 601.41 285.28 598.60 C 290.86 599.03 296.38 599.98 301.93 600.72 C 343.03 606.20 385.95 599.88 423.05 581.09 C 449.21 567.87 472.88 548.99 489.95 525.03 C 499.61 511.24 506.52 495.51 510.05 479.04 Z" />
<path fill="#D4AF37" opacity="1.00" d=" M 263.23 522.91 C 269.56 528.18 276.58 533.23 284.91 534.52 C 292.21 535.87 299.57 534.57 306.84 533.72 C 301.45 541.61 295.39 549.03 289.82 556.79 C 288.53 558.32 287.41 560.62 285.07 560.48 C 278.79 560.23 273.87 555.53 270.02 551.00 C 265.01 544.65 260.47 537.21 260.11 528.92 C 259.93 526.44 261.69 524.59 263.23 522.91 Z" />
</g>
</svg>
